<?xml version="1.0" standalone="no"?>
<!DOCTYPE svg PUBLIC "-//W3C//DTD SVG 20010904//EN"
 "http://www.w3.org/TR/2001/REC-SVG-20010904/DTD/svg10.dtd">
<svg version="1.0" xmlns="http://www.w3.org/2000/svg"
 width="577.000000pt" height="433.000000pt" viewBox="0 0 577.000000 433.000000"
 preserveAspectRatio="xMidYMid meet">

<g transform="translate(0.000000,433.000000) scale(0.100000,-0.100000)"
fill="#000000" stroke="none">
<path d="M2580 3794 c-30 -9 -85 -36 -122 -60 -55 -37 -79 -62 -126 -133 -69
-103 -104 -188 -133 -326 -25 -121 -42 -171 -81 -250 -38 -75 -54 -182 -34
-228 l14 -32 1 29 c1 24 3 27 16 16 14 -11 14 -10 5 14 -15 40 -13 49 19 85
l28 32 7 -32 c3 -17 6 -63 6 -101 0 -58 -3 -69 -15 -64 -12 4 -13 2 -3 -13 9
-15 7 -31 -10 -78 -12 -33 -22 -70 -22 -82 0 -12 -5 -32 -11 -43 -8 -15 -8
-19 0 -14 6 4 11 4 11 -1 0 -11 -20 -40 -20 -30 0 5 -20 -9 -44 -30 -24 -21
-87 -60 -141 -87 -103 -52 -195 -118 -195 -140 0 -7 -17 -25 -37 -39 -68 -45
-117 -102 -162 -186 -35 -65 -52 -85 -78 -96 -18 -8 -34 -20 -34 -27 -3 -27 3
-43 18 -55 23 -18 6 -33 -37 -33 -30 0 -43 -6 -64 -31 -30 -35 -33 -69 -9
-110 16 -27 16 -29 -4 -51 -11 -13 -19 -28 -16 -34 2 -7 -5 -10 -19 -7 -28 5
-68 -29 -68 -58 0 -23 18 -61 33 -71 7 -4 6 -12 -2 -22 -12 -15 -17 -14 -46 4
-80 50 -151 -8 -115 -95 5 -13 2 -26 -8 -38 -26 -29 -20 -86 11 -113 32 -28
32 -29 7 -61 -25 -32 -25 -66 -2 -105 17 -29 17 -30 -10 -50 -37 -26 -38 -75
-3 -116 22 -27 23 -30 8 -45 -24 -23 -7 -65 37 -95 28 -19 35 -30 36 -58 1
-45 23 -67 67 -68 25 -1 41 -9 56 -28 12 -14 34 -29 51 -33 16 -3 42 -16 57
-28 24 -19 41 -22 143 -24 88 -1 115 -5 114 -15 -2 -26 -64 -245 -94 -332 -16
-50 -30 -93 -30 -98 0 -4 194 -8 431 -8 385 0 430 2 419 15 -7 9 -10 19 -6 23
4 4 13 -1 20 -10 15 -20 26 -14 26 16 0 12 7 29 14 39 12 16 14 16 20 1 3 -8
6 -25 6 -37 1 -17 4 -15 15 11 18 42 41 37 37 -7 -2 -33 -1 -34 71 -14 20 5
22 -8 5 -25 -9 -9 0 -12 40 -12 l53 0 -16 29 c-32 62 -126 110 -209 106 -33
-1 -60 -11 -99 -38 -53 -35 -67 -37 -67 -11 0 12 51 47 103 71 30 13 116 9
177 -9 42 -12 105 -70 127 -115 l15 -33 218 0 c208 0 218 1 236 21 49 54 140
79 244 67 76 -9 116 -25 163 -64 27 -23 35 -24 191 -24 l163 0 -18 99 c-9 55
-29 193 -44 308 -14 114 -28 216 -31 226 -4 13 1 17 25 17 16 0 33 5 36 10 12
19 25 10 64 -48 51 -76 257 -273 344 -330 166 -108 349 -156 457 -120 19 6 69
14 110 17 71 6 75 8 97 40 12 18 21 37 18 41 -3 4 14 11 37 14 71 12 94 50 67
110 -11 24 -12 24 -31 7 -39 -37 -122 -71 -173 -71 -70 0 -81 9 -69 57 9 38 9
38 59 38 28 -1 64 -3 80 -5 26 -4 30 -1 33 19 2 13 12 26 23 28 15 4 19 15 20
57 1 28 5 143 9 256 l8 205 -3 -251 c-2 -248 -1 -251 21 -277 28 -33 44 -34
73 -3 30 32 39 91 17 115 -17 18 -15 20 28 51 36 24 46 37 46 59 0 15 -9 36
-20 46 -17 15 -19 27 -14 109 4 78 2 97 -16 131 -24 47 -25 74 -5 101 35 46 5
104 -54 104 -60 0 -86 49 -38 71 25 11 57 57 57 81 0 8 -8 23 -19 34 -18 19
-17 20 10 52 34 39 38 83 9 112 -11 11 -24 20 -29 20 -5 0 -7 9 -4 20 9 33 -6
70 -31 80 -16 6 -26 19 -30 43 -3 19 -15 42 -25 51 -18 16 -20 16 -33 -11 -23
-46 -42 -73 -51 -73 -14 0 2 53 33 113 16 31 30 70 32 89 2 25 7 32 20 30 13
-2 16 2 11 14 -5 13 -3 15 7 9 10 -6 11 0 5 31 -5 21 -7 48 -6 59 1 11 2 39 3
63 0 23 5 42 10 42 22 0 3 22 -39 43 -27 13 -65 33 -85 45 -31 18 -37 19 -42
6 -9 -22 -9 -22 20 -26 21 -2 29 -12 44 -58 17 -49 17 -58 4 -90 -8 -19 -49
-69 -91 -109 -71 -71 -76 -74 -89 -56 -13 18 -14 17 -14 -8 0 -20 -7 -31 -25
-39 -35 -16 -41 -4 -15 32 12 17 19 38 16 46 -3 9 2 28 13 42 25 36 34 69 22
77 -6 3 -25 7 -43 9 -18 2 -41 7 -50 10 -27 12 -108 -79 -108 -121 0 -21 -9
-41 -25 -57 -28 -29 -32 -66 -10 -100 13 -20 14 -35 6 -86 -6 -35 -17 -70 -26
-80 -8 -9 -13 -19 -11 -21 3 -2 -4 -15 -15 -29 -14 -18 -17 -20 -12 -6 5 16 3
18 -11 13 -11 -4 -27 0 -42 12 -14 11 -49 27 -77 37 -29 9 -63 24 -77 32 -28
17 -140 132 -140 144 0 4 -21 47 -47 95 -32 59 -71 111 -118 158 -38 39 -84
86 -100 105 -45 52 -107 100 -128 100 -10 0 -21 -9 -24 -20 -3 -11 -9 -18 -13
-15 -5 3 -11 -18 -15 -47 -12 -108 -23 -172 -24 -151 -2 38 -16 33 -15 -5 1
-47 -4 -55 -22 -38 -17 17 -19 46 -3 46 8 0 8 5 -1 15 -8 10 -10 29 -6 58 4
23 8 58 10 77 1 19 6 52 10 73 7 33 6 37 -12 37 -18 0 -21 -6 -21 -42 0 -86
-9 -132 -32 -149 -14 -11 -18 -18 -10 -23 15 -9 14 -49 -1 -64 -17 -17 -42
-15 -61 6 -23 25 -21 49 4 62 20 11 20 13 4 30 -21 23 -13 70 12 70 13 0 14 3
5 12 -7 7 -12 36 -12 65 0 32 -4 53 -11 53 -7 0 -9 -10 -7 -24 3 -13 -1 -59
-8 -102 -7 -44 -13 -84 -13 -91 -1 -6 -8 -19 -17 -27 -8 -9 -11 -16 -5 -16 6
0 11 -14 11 -31 0 -21 -4 -28 -12 -23 -10 6 -10 5 -1 -7 6 -8 17 -69 24 -136
6 -68 16 -123 20 -123 5 0 9 7 9 15 0 8 7 15 16 15 12 0 11 5 -7 19 -21 17
-22 22 -11 40 6 11 12 27 12 35 0 22 29 27 56 10 31 -21 31 -58 1 -87 -42 -39
-42 -58 -2 -92 34 -28 36 -32 24 -60 -6 -16 -11 -49 -10 -72 2 -27 -2 -43 -9
-43 -6 0 3 -12 20 -26 34 -29 38 -69 8 -88 -35 -21 -73 45 -46 80 6 8 -1 19
-17 32 -33 26 -33 85 0 90 29 4 50 39 34 58 -15 18 -79 57 -85 52 -2 -3 3 -76
12 -164 10 -100 14 -195 10 -255 -13 -214 -30 -211 -34 6 -2 136 -8 236 -24
391 -1 6 -10 9 -20 6 -10 -2 -18 1 -18 7 0 6 7 11 16 11 14 0 15 9 11 58 -4
31 -6 77 -7 101 0 34 -3 42 -15 37 -8 -3 -15 -1 -15 4 0 6 6 10 13 10 8 0 7 4
-3 10 -12 8 -13 11 -1 19 11 7 11 9 0 14 -9 3 -9 6 -2 6 7 1 17 33 24 76 6 41
14 73 18 71 3 -2 7 30 8 72 3 86 -10 74 -21 -20 -4 -32 -12 -58 -17 -58 -6 0
-7 9 -4 20 4 11 2 20 -4 20 -6 0 -11 -3 -12 -7 0 -5 -2 -18 -5 -30 -3 -16 1
-23 12 -23 8 0 12 -5 9 -10 -4 -6 -11 -8 -16 -5 -5 4 -9 -1 -9 -10 0 -9 5 -13
11 -9 8 5 8 1 0 -14 -6 -11 -11 -30 -11 -42 0 -11 -8 -23 -17 -27 -10 -3 -28
-15 -40 -25 -11 -11 -39 -22 -61 -25 -29 -4 -39 -9 -35 -19 3 -8 14 -14 24
-14 10 0 19 -4 19 -10 0 -5 -9 -10 -19 -10 -24 0 -36 -16 -19 -23 8 -3 8 -6 2
-6 -8 -1 -7 -19 1 -64 6 -35 10 -73 8 -85 -2 -15 2 -22 15 -23 10 0 12 -3 5
-6 -16 -6 -17 -43 -2 -43 6 0 8 7 5 16 -3 9 -2 12 5 9 6 -4 8 -13 5 -21 -3 -8
-1 -14 5 -14 6 0 8 -7 5 -16 -3 -8 -2 -12 3 -9 5 3 12 1 16 -5 3 -5 16 -10 29
-10 12 0 32 -9 44 -20 23 -22 29 -40 12 -40 -5 0 -7 -8 -3 -17 5 -15 3 -15
-10 2 -13 17 -17 17 -31 6 -9 -8 -15 -20 -12 -27 10 -25 -25 -1 -37 25 l-11
26 -4 -28 c-4 -35 -25 -44 -55 -24 -20 13 -25 13 -42 1 -11 -8 -26 -12 -35 -8
-8 3 -21 8 -27 11 -8 3 -13 -3 -14 -13 0 -18 -1 -17 -9 1 -5 11 -9 14 -9 8 -1
-15 -47 -17 -56 -3 -3 6 -11 10 -18 10 -8 0 -8 -3 1 -12 7 -7 12 -16 12 -20 0
-13 -48 -9 -52 4 -3 9 -10 8 -22 -5 -10 -9 -21 -16 -24 -14 -48 22 -62 33 -60
47 2 9 -3 24 -11 33 -21 27 -6 47 36 48 33 1 -208 47 -247 47 -30 1 66 -37 98
-37 25 -1 32 -5 32 -21 0 -24 -27 -37 -43 -21 -15 15 -27 14 -27 -4 0 -22 -28
-19 -42 5 -11 18 -14 18 -30 3 -12 -11 -18 -12 -18 -4 0 7 -4 10 -9 7 -5 -4
-16 -3 -25 0 -13 5 -14 9 -4 21 9 11 9 16 -3 23 -8 6 -18 5 -23 0 -6 -6 -15
-10 -20 -10 -6 0 -5 5 2 12 19 19 14 28 -13 28 -25 0 -25 -1 -25 -82 0 -45 -3
-79 -6 -75 -4 3 -8 101 -10 217 l-3 210 26 -6 26 -7 -19 26 c-10 15 -28 27
-39 27 -11 1 -15 4 -10 6 6 2 9 29 7 62 -4 70 4 106 21 95 7 -4 4 5 -6 20 -12
19 -14 27 -5 27 20 -1 45 -24 41 -37 -3 -7 3 -10 15 -6 21 5 26 33 6 33 -6 0
-26 16 -44 37 -30 34 -31 37 -14 47 30 16 47 16 66 -1 11 -10 26 -13 43 -9 14
4 25 2 25 -3 0 -5 13 -14 29 -21 16 -6 32 -18 35 -26 7 -17 96 -20 96 -3 0 6
8 1 19 -12 16 -19 21 -21 34 -11 12 11 19 11 35 1 16 -10 24 -10 34 -1 11 9
17 9 27 -1 8 -8 14 -9 19 -1 4 6 17 16 30 23 12 6 22 18 22 26 0 18 5 19 30 3
17 -11 22 -10 30 2 14 22 12 40 -4 40 -7 0 -17 10 -21 23 -8 22 -8 22 -12 -3
-5 -26 -19 -40 -42 -40 -7 0 -11 6 -8 15 4 8 2 17 -3 20 -6 4 -10 21 -10 38 0
18 -5 39 -11 47 -10 15 -5 -70 7 -128 3 -14 1 -21 -5 -17 -10 6 -15 26 -26
115 -5 43 -4 47 22 56 26 10 25 10 -15 9 -31 -2 -42 1 -38 11 3 7 1 25 -3 41
-11 39 4 76 39 97 31 18 37 30 20 41 -17 10 -11 25 12 34 16 6 28 3 42 -11 33
-31 34 -30 52 77 11 60 22 18 23 -83 1 -96 -10 -125 -66 -170 -28 -22 -33 -30
-19 -29 19 2 69 46 94 83 11 17 12 16 9 -14 -2 -20 0 -31 7 -29 6 2 10 12 8
22 -3 13 1 16 13 11 9 -3 19 -6 21 -6 2 0 4 -13 4 -28 0 -15 5 -33 11 -39 7
-7 6 -12 -6 -17 -9 -3 -14 -2 -11 2 2 4 -2 16 -10 27 -8 10 -14 14 -14 9 0 -6
5 -15 12 -22 16 -16 -4 -16 -22 1 -7 6 0 -5 16 -25 16 -21 36 -38 44 -38 12 0
12 2 2 8 -14 10 -6 42 12 42 6 0 5 4 -3 9 -14 9 -25 61 -14 61 3 0 33 -13 67
-29 34 -15 71 -32 84 -36 23 -7 23 -5 21 37 -2 24 1 49 5 56 8 14 -1 168 -14
226 -5 23 -14 75 -19 116 -6 41 -16 100 -22 130 -12 58 2 158 24 171 14 9 -8
122 -44 231 -16 48 -29 103 -29 123 0 19 -4 35 -8 35 -5 0 -9 12 -9 28 0 52
-116 214 -191 266 -21 14 -51 26 -68 26 -16 0 -38 7 -48 15 -11 8 -30 15 -42
15 -13 0 -49 7 -81 17 -80 22 -158 25 -223 7z m255 -132 c42 -20 66 -43 58
-55 -4 -6 -1 -7 6 -3 15 10 53 -23 44 -38 -3 -6 -3 -8 2 -4 14 13 110 -89 129
-139 57 -150 66 -187 77 -331 12 -148 22 -189 33 -135 4 16 15 34 26 41 27 17
26 12 -20 -75 -22 -42 -40 -86 -40 -97 0 -24 -78 -142 -91 -139 -5 2 -9 -3 -9
-11 0 -21 -109 -86 -145 -86 -35 0 -91 19 -124 40 -30 20 -20 43 29 65 27 12
45 30 59 57 l19 40 -34 -6 c-19 -4 -34 -3 -34 2 0 9 89 52 108 52 5 0 17 9 27
20 19 20 19 20 34 -12 l15 -33 4 45 c2 30 11 53 27 70 46 49 10 93 -129 158
-55 25 -63 24 -46 -8 15 -27 1 -39 -36 -32 -13 2 -31 -1 -39 -8 -11 -9 -19 -8
-37 4 -28 20 -62 20 -78 1 -12 -14 -40 -21 -40 -10 0 4 7 20 16 36 21 42 8 51
-19 14 -87 -119 -77 -113 -167 -99 -61 9 -69 18 -60 58 5 21 3 45 -6 64 -16
40 -2 46 57 26 38 -14 48 -13 93 1 28 9 62 25 77 36 29 20 39 17 40 -15 1 -31
29 64 29 99 0 36 -41 101 -70 110 -22 7 -122 -11 -155 -27 -11 -6 -33 -22 -48
-37 l-29 -26 6 25 c3 14 11 54 17 89 19 115 78 194 168 227 25 10 71 28 101
41 61 25 109 27 155 5z m-310 -382 c18 -8 18 -9 2 -9 -10 -1 -40 -12 -67 -26
-60 -31 -65 -31 -46 -3 29 41 70 55 111 38z m400 -277 c14 -21 25 -43 25 -50
0 -14 -36 -27 -51 -17 -14 8 -176 7 -190 -2 -6 -4 -1 -16 12 -30 12 -13 27
-20 33 -16 21 13 86 12 86 -1 0 -9 3 -8 9 1 10 16 53 12 58 -5 3 -6 -4 -11
-14 -11 -10 1 -42 -4 -70 -11 -63 -15 -74 -41 -15 -36 l37 3 -31 -10 c-27 -9
-35 -19 -49 -64 -9 -30 -18 -54 -19 -54 -1 0 -2 32 -2 71 1 53 -3 74 -15 82
-8 7 -18 20 -22 29 -9 24 -82 45 -101 29 -8 -7 -19 -10 -24 -7 -5 3 -9 -9 -10
-27 l-1 -32 15 25 c14 23 14 23 9 3 -5 -19 -2 -23 14 -23 12 0 21 -4 21 -10 0
-5 7 -10 15 -10 8 0 15 -4 15 -10 0 -5 6 -10 14 -10 8 0 24 -19 35 -43 22 -45
27 -72 12 -63 -5 3 -11 -11 -15 -32 -7 -49 -55 -120 -67 -101 -5 9 -9 -8 -9
-47 0 -34 -6 -68 -13 -78 -13 -17 -14 -16 -26 11 -7 17 -32 49 -55 72 -42 41
-44 42 -82 32 -60 -17 -70 -28 -28 -29 21 -1 41 -7 45 -13 5 -8 8 -8 13 0 14
22 34 10 75 -43 51 -65 65 -107 45 -133 -7 -10 -13 -27 -13 -38 0 -20 1 -20 8
-1 7 19 8 18 16 -5 l8 -24 4 25 c3 14 9 29 13 34 5 5 6 -1 3 -14 -5 -19 -3
-22 10 -17 13 5 17 1 17 -18 0 -13 -4 -27 -10 -30 -6 -3 -10 4 -10 17 -1 21
-2 21 -11 5 -9 -15 -13 -16 -26 -5 -12 10 -17 9 -28 -5 -15 -21 -25 -22 -25
-1 0 9 -15 31 -32 48 -25 23 -43 31 -73 33 -22 1 -68 2 -102 4 -81 3 -125 -15
-117 -46 4 -15 -2 -34 -14 -52 -67 -99 -74 -112 -66 -135 4 -13 6 -37 5 -54
-3 -37 13 -51 35 -33 20 17 61 74 46 65 -7 -4 -12 -4 -12 -1 0 15 42 86 78
132 42 52 86 72 120 54 9 -5 25 -12 35 -15 24 -8 22 -67 -5 -119 -12 -23 -22
-45 -23 -49 0 -3 -3 -10 -7 -14 -5 -4 -8 -17 -8 -29 0 -11 -5 -26 -11 -32 -9
-9 -8 -16 5 -28 32 -33 10 -80 -35 -73 -42 6 -46 33 -11 77 33 41 41 57 21 46
-6 -4 -21 2 -33 14 l-22 21 2 -28 c1 -15 -4 -48 -11 -74 -6 -27 -8 -48 -3 -48
4 0 8 -5 8 -11 0 -5 -4 -8 -9 -4 -6 3 -15 -4 -21 -15 -11 -21 -11 -21 -41 5
-17 14 -37 25 -45 25 -10 0 -13 9 -10 35 2 19 8 40 12 47 4 7 -2 4 -12 -7 -11
-11 -25 -33 -32 -48 l-12 -28 -48 38 c-26 21 -50 43 -54 48 -5 6 -11 5 -17 -4
-8 -12 -12 -12 -25 -2 -12 10 -17 7 -32 -20 -22 -43 -20 -112 5 -162 11 -22
18 -44 15 -49 -3 -4 0 -8 5 -8 6 0 11 -16 11 -35 0 -19 -4 -35 -10 -35 -5 0
-10 -7 -10 -15 0 -8 4 -15 10 -15 5 0 1 -13 -8 -30 -9 -16 -23 -30 -29 -30 -8
0 -13 -13 -13 -33 0 -23 -9 -43 -33 -68 -18 -19 -39 -43 -47 -54 -8 -11 -27
-28 -43 -38 -26 -17 -28 -17 -51 0 -30 22 -51 63 -33 63 8 0 7 4 -3 10 -11 7
-14 25 -13 67 1 32 2 83 3 114 l1 56 102 119 c56 66 108 127 115 136 7 8 19
42 28 74 8 33 19 63 25 69 5 5 9 17 9 26 0 9 11 27 24 40 13 13 22 29 19 36
-4 9 4 12 26 9 38 -4 54 -16 22 -16 -21 0 -22 -4 -19 -60 2 -45 -1 -63 -12
-70 -8 -5 -12 -12 -9 -15 9 -8 59 16 60 29 5 75 10 107 19 130 5 15 10 62 11
104 0 139 13 213 38 233 23 18 67 34 126 43 17 2 32 5 35 5 3 1 -4 8 -15 16
-19 15 -19 16 12 47 22 21 41 31 61 30 26 0 31 4 43 41 13 43 16 52 18 75 0 6
33 44 72 83 64 64 73 69 97 61 31 -10 107 3 137 24 11 8 29 14 41 14 12 0 27
7 34 15 20 24 37 18 65 -22z m-228 -128 c0 -8 -4 -15 -9 -15 -10 0 -11 14 -1
23 9 10 10 9 10 -8z m493 -15 c0 -5 -2 -10 -4 -10 -3 0 -8 5 -11 10 -3 6 -1
10 4 10 6 0 11 -4 11 -10z m-10 -62 c0 9 7 8 25 -4 14 -9 25 -26 25 -37 0 -20
0 -20 -24 2 -14 13 -29 20 -35 17 -13 -8 -24 11 -15 25 4 8 9 7 15 -2 7 -11 9
-11 9 -1z m33 -93 c18 -20 18 -20 11 5 -6 22 -5 23 10 11 10 -8 14 -22 11 -35
-3 -12 -2 -16 1 -9 7 15 34 5 34 -12 0 -15 -41 -8 -53 9 -5 7 -11 5 -18 -6
-12 -22 -39 -24 -39 -3 0 8 -4 15 -10 15 -5 0 -10 8 -9 18 0 12 2 13 6 3 5
-11 7 -11 14 0 6 10 9 11 9 2 0 -7 4 -13 8 -13 17 0 8 30 -10 36 -10 3 -18 10
-18 16 0 12 26 -6 53 -37z m-65 -38 c2 -10 -3 -17 -12 -17 -9 0 -14 8 -13 20
2 24 21 21 25 -3z m-438 -182 c0 -18 -7 -38 -15 -45 -8 -7 -20 -31 -27 -54 -7
-24 -13 -34 -15 -24 -2 9 3 30 11 47 21 40 20 53 -5 85 l-21 26 24 9 c31 12
48 -4 48 -44z m-640 -114 c0 -12 -39 -21 -45 -11 -3 5 3 11 12 13 29 8 33 7
33 -2z m-60 -21 c0 -5 -7 -7 -15 -4 -8 4 -15 8 -15 10 0 2 7 4 15 4 8 0 15 -4
15 -10z m-166 -71 c-28 -30 -92 -64 -102 -54 -3 2 10 12 28 22 18 10 46 28 64
40 43 29 45 28 10 -8z m876 5 c0 -16 -23 -44 -36 -44 -8 0 -12 5 -9 10 4 6 11
8 16 5 5 -4 9 -1 9 4 0 6 -4 11 -10 11 -5 0 -10 5 -10 10 0 6 9 10 20 10 11 0
20 -3 20 -6z m30 -15 c0 -5 -4 -9 -10 -9 -5 0 -10 7 -10 16 0 8 5 12 10 9 6
-3 10 -10 10 -16z m49 1 c4 0 7 -33 7 -74 -1 -69 -2 -73 -14 -49 -9 17 -12 41
-8 72 9 63 -11 31 -24 -40 -12 -61 -16 -67 -33 -50 -8 8 -9 14 -1 19 6 4 17
35 25 70 9 45 17 61 27 57 7 -3 17 -5 21 -5z m-499 -9 c0 -6 -4 -13 -10 -16
-5 -3 -10 1 -10 9 0 9 5 16 10 16 6 0 10 -4 10 -9z m546 -56 c-1 -44 -5 -65
-13 -65 -9 0 -11 18 -9 63 4 71 4 67 14 67 4 0 8 -29 8 -65z m76 13 c4 -65 0
-98 -13 -98 -5 0 -9 29 -9 65 0 37 -4 65 -10 65 -5 0 -10 -24 -10 -54 0 -30
-5 -58 -10 -61 -7 -4 -10 18 -9 64 2 71 2 71 29 71 27 0 28 -3 32 -52z m-642
10 c0 -5 -4 -8 -10 -8 -5 0 -10 10 -10 23 0 18 2 19 10 7 5 -8 10 -18 10 -22z
m340 0 c0 -5 -7 -3 -15 6 -8 8 -15 18 -15 22 0 3 7 1 15 -6 8 -7 15 -17 15
-22z m120 14 c0 -13 -12 -22 -22 -16 -10 6 -1 24 13 24 5 0 9 -4 9 -8z m-53
-28 c-3 -3 -12 -4 -19 -1 -8 3 -5 6 6 6 11 1 17 -2 13 -5z m-67 -14 c0 -5 -4
-10 -10 -10 -5 0 -10 5 -10 10 0 6 5 10 10 10 6 0 10 -4 10 -10z m100 0 c0 -5
-5 -10 -11 -10 -5 0 -7 5 -4 10 3 6 8 10 11 10 2 0 4 -4 4 -10z m-40 -20 c0
-5 -7 -10 -16 -10 -8 0 -12 5 -9 10 3 6 10 10 16 10 5 0 9 -4 9 -10z m1030
-80 c0 -5 -4 -10 -10 -10 -5 0 -10 5 -10 10 0 6 5 10 10 10 6 0 10 -4 10 -10z
m0 -64 c0 -3 -4 -8 -10 -11 -5 -3 -10 -1 -10 4 0 6 5 11 10 11 6 0 10 -2 10
-4z m-1825 -55 c3 -6 -3 -9 -12 -9 -10 1 -36 -2 -58 -5 -39 -7 -39 -7 -15 7
28 17 76 21 85 7z m1825 -21 c0 -5 -7 -10 -16 -10 -8 0 -12 5 -9 10 3 6 10 10
16 10 5 0 9 -4 9 -10z m-149 -30 c26 -15 24 -42 -6 -70 l-25 -24 -28 21 c-35
26 -34 39 3 63 35 23 31 23 56 10z m144 -10 c3 -5 -1 -10 -9 -10 -9 0 -16 5
-16 10 0 6 4 10 9 10 6 0 13 -4 16 -10z m-1916 -19 l24 -18 -57 1 c-56 1 -56
1 -34 18 29 22 37 22 67 -1z m-124 -11 c-3 -5 -15 -10 -25 -10 -10 0 -22 5
-25 10 -4 6 7 10 25 10 18 0 29 -4 25 -10z m669 -15 c-4 -8 -10 -12 -15 -9
-14 8 -10 24 6 24 9 0 12 -6 9 -15z m1366 5 c0 -5 -4 -10 -10 -10 -5 0 -10 5
-10 10 0 6 5 10 10 10 6 0 10 -4 10 -10z m-1235 -315 c4 -202 3 -295 -5 -305
-8 -11 -10 18 -9 110 1 158 1 162 -11 155 -5 -3 -10 -1 -10 4 0 6 5 11 10 11
6 0 10 61 10 162 0 89 2 159 4 157 2 -2 7 -134 11 -294z m1175 285 c0 -5 -4
-10 -10 -10 -5 0 -10 5 -10 10 0 6 5 10 10 10 6 0 10 -4 10 -10z m-1455 -20
c3 -5 1 -10 -4 -10 -6 0 -11 5 -11 10 0 6 2 10 4 10 3 0 8 -4 11 -10z m1232
-16 c-9 -9 -28 6 -21 18 4 6 10 6 17 -1 6 -6 8 -13 4 -17z m-1771 -5 c3 -6 1
-16 -5 -22 -8 -8 -11 -7 -11 4 0 11 -2 12 -9 0 -7 -10 -10 -10 -16 -1 -4 7 -1
16 6 21 19 12 26 11 35 -2z m760 -23 l28 -23 -29 -27 c-27 -25 -78 -35 -89
-17 -3 4 11 8 30 7 25 -1 40 5 48 17 20 32 -20 43 -78 21 -25 -10 -10 19 17
32 34 17 44 16 73 -10z m-826 -1 c-7 -8 -9 -15 -4 -15 4 0 3 -5 -4 -12 -7 -7
-12 -21 -12 -32 1 -16 4 -13 15 12 11 26 20 32 44 32 16 0 32 6 35 13 5 10 7
10 12 0 3 -7 11 -13 17 -13 7 0 17 -16 23 -36 l12 -36 -54 7 c-36 4 -54 3 -54
-4 0 -6 -16 -17 -35 -25 -29 -12 -35 -20 -35 -45 0 -65 -33 -85 -49 -28 l-9
32 -1 -32 c-1 -18 4 -33 9 -33 6 0 10 -4 10 -9 0 -5 -18 -9 -40 -9 -45 -1 -50
10 -19 36 30 25 53 72 55 110 1 18 3 34 5 35 2 2 21 17 42 35 40 34 58 42 37
17z m1785 5 c-3 -5 -1 -10 5 -10 7 0 10 -6 7 -14 -3 -8 -2 -16 2 -18 5 -2 11
-47 15 -101 7 -97 7 -98 -13 -85 -25 15 -27 28 -6 28 8 0 15 4 15 8 0 4 -16 8
-35 8 -19 0 -35 -4 -35 -8 0 -4 -4 -8 -10 -8 -5 0 -10 8 -10 18 0 10 -5 23
-12 30 -7 7 -9 12 -6 12 4 0 3 14 -2 30 -5 19 -5 28 1 25 5 -4 9 -1 9 4 0 6
-4 11 -10 11 -5 0 -10 7 -10 17 0 15 1 15 18 0 10 -10 25 -17 33 -17 8 0 -2
10 -22 22 -34 19 -36 22 -21 39 17 20 99 28 87 9z m56 -22 c1 -18 3 -45 5 -60
1 -15 -1 -30 -7 -33 -5 -4 -9 6 -9 22 0 15 -4 42 -9 60 -5 17 -7 34 -3 37 13
14 22 4 23 -26z m279 22 c0 -5 -5 -10 -11 -10 -5 0 -7 5 -4 10 3 6 8 10 11 10
2 0 4 -4 4 -10z m-8 -52 c-7 -7 -12 -8 -12 -2 0 14 12 26 19 19 2 -3 -1 -11
-7 -17z m8 -22 c0 -2 -7 -9 -15 -16 -13 -11 -14 -10 -9 4 5 14 24 23 24 12z
m-1535 -35 c-3 -6 -11 -8 -17 -5 -6 4 -8 -1 -3 -15 4 -12 2 -21 -4 -21 -6 0
-11 -4 -11 -10 0 -5 -11 -20 -25 -34 -15 -15 -22 -31 -19 -40 4 -10 -1 -18
-11 -22 -9 -4 -12 -10 -7 -13 15 -9 -19 -102 -43 -117 -18 -12 -21 -11 -21 5
0 11 4 17 8 15 11 -7 10 4 -2 25 -7 13 -4 35 11 76 11 32 18 64 15 71 -3 8 -2
14 3 14 5 0 14 14 21 30 13 30 30 40 30 18 1 -7 7 -2 15 12 9 15 14 19 15 10
0 -12 2 -13 9 -1 5 7 14 10 20 7 6 -4 11 -2 11 5 0 7 3 10 6 6 3 -3 3 -11 -1
-16z m221 -18 c-11 -11 -19 6 -11 24 8 17 8 17 12 0 3 -10 2 -21 -1 -24z
m1154 -53 c10 0 9 -4 -1 -17 -12 -15 -12 -16 6 -9 16 6 17 5 8 -5 -16 -17 -53
15 -53 45 1 20 2 20 14 4 7 -10 19 -18 26 -18z m660 17 c0 -7 34 -35 75 -62
73 -48 91 -63 60 -51 -22 8 -18 -7 5 -22 14 -8 19 -9 18 -1 -5 21 17 20 40 -1
37 -35 26 -55 -12 -22 -21 17 -21 17 -4 -4 13 -15 15 -23 6 -32 -18 -18 -70
17 -62 41 4 12 2 17 -4 13 -17 -10 -82 -17 -102 -11 -23 7 -27 25 -6 25 27 0
27 19 2 52 -35 47 -50 88 -31 88 8 0 15 -6 15 -13z m-763 -27 c0 -37 -19 -34
-24 3 -2 18 1 27 10 27 9 0 14 -11 14 -30z m1532 -10 c0 -10 -3 -8 -9 5 -12
27 -12 43 0 25 5 -8 9 -22 9 -30z m-1299 -31 c0 -6 -4 -7 -10 -4 -5 3 -10 11
-10 16 0 6 5 7 10 4 6 -3 10 -11 10 -16z m-315 -9 c3 -5 -1 -10 -9 -10 -8 0
-18 5 -21 10 -3 6 1 10 9 10 8 0 18 -4 21 -10z m85 0 c0 -5 -4 -10 -10 -10 -5
0 -10 5 -10 10 0 6 5 10 10 10 6 0 10 -4 10 -10z m1550 -27 c12 -42 50 -435
49 -498 -2 -62 -26 130 -39 310 -7 87 -16 170 -21 183 -10 25 -12 42 -4 42 2
0 9 -17 15 -37z m-3467 -34 c-15 -30 -34 -58 -40 -62 -7 -4 -13 -14 -13 -21 0
-7 -9 -21 -20 -31 -11 -10 -20 -15 -20 -10 0 4 8 14 18 21 16 13 16 15 -1 28
-16 12 -15 15 18 40 19 15 35 33 35 40 0 14 40 60 47 53 2 -3 -8 -29 -24 -58z
m1925 23 c2 -7 -3 -12 -12 -12 -9 0 -16 7 -16 16 0 17 22 14 28 -4z m-1048
-34 c0 -10 -4 -18 -10 -18 -5 0 -10 7 -10 16 0 14 -3 14 -16 3 -8 -7 -13 -20
-11 -30 3 -12 -1 -17 -14 -16 -10 1 -16 3 -14 6 3 2 -2 9 -11 16 -14 10 -12
15 15 38 27 23 35 25 51 14 11 -6 20 -20 20 -29z m155 12 c3 -5 1 -10 -4 -10
-6 0 -11 5 -11 10 0 6 2 10 4 10 3 0 8 -4 11 -10z m289 -9 c3 -5 -1 -14 -8
-20 -16 -13 -32 2 -21 19 8 12 22 13 29 1z m616 -44 c0 -20 -25 1 -28 24 -2
23 -2 23 13 5 8 -11 15 -24 15 -29z m1035 -42 c-8 -44 -15 -102 -16 -130 -2
-49 -3 -48 -8 15 -5 56 4 130 25 189 12 36 12 -3 -1 -74z m-978 43 c-3 -8 -6
-5 -6 6 -1 11 2 17 5 13 3 -3 4 -12 1 -19z m140 -15 c-3 -10 -5 -4 -5 12 0 17
2 24 5 18 2 -7 2 -21 0 -30z m-997 -3 c-8 -5 -19 -10 -25 -10 -5 0 -3 5 5 10
8 5 20 10 25 10 6 0 3 -5 -5 -10z m121 -7 c0 -11 3 -13 6 -5 2 6 11 12 19 12
9 0 12 -5 8 -11 -7 -11 12 -29 31 -29 6 0 3 4 -5 10 -8 5 -11 12 -7 16 8 8 39
-15 32 -26 -4 -7 15 -29 50 -58 9 -8 14 -19 12 -25 -2 -7 2 -18 10 -25 7 -7
13 -18 13 -24 0 -6 -9 1 -20 15 -11 14 -20 29 -20 34 0 5 -14 10 -32 11 l-32
3 27 -29 c19 -19 30 -45 36 -79 7 -48 6 -52 -28 -92 -61 -71 -149 -73 -221 -5
-25 24 -37 30 -43 21 -6 -8 -7 -6 -3 6 6 19 -3 49 -13 43 -3 -2 -4 16 -2 40 2
34 0 44 -10 42 -27 -6 2 78 40 119 21 22 98 40 126 29 8 -3 15 -1 15 3 0 5 -6
12 -12 14 -8 3 -6 6 5 6 10 1 17 -6 18 -16z m-1291 -118 l-6 -120 -2 116 c-1
64 1 119 5 122 9 10 9 12 3 -118z m1855 85 c12 -19 -12 -10 -31 11 -19 22 -19
22 3 10 12 -6 25 -16 28 -21z m109 14 c4 -9 4 -19 2 -21 -8 -8 -26 8 -26 23 0
19 16 18 24 -2z m-861 -42 c-10 -18 -21 -32 -25 -32 -13 0 -9 10 12 33 11 12
18 28 15 37 -5 11 -3 12 5 4 8 -8 6 -19 -7 -42z m801 33 c3 -8 2 -15 -3 -15
-5 0 -14 7 -21 15 -10 12 -10 15 3 15 8 0 17 -7 21 -15z m-449 -61 c9 -14 15
-30 13 -36 -2 -6 -14 5 -26 26 -12 20 -28 39 -37 42 -8 4 -15 10 -15 15 0 15
47 -20 65 -47z m345 33 c42 -20 90 -63 89 -80 0 -9 -2 -9 -6 1 -7 19 -86 70
-119 77 -23 5 -20 2 13 -14 33 -15 40 -23 36 -40 -5 -19 -7 -19 -28 -5 -13 8
-48 18 -78 21 -47 5 -60 2 -86 -16 -33 -24 -61 -68 -61 -97 0 -13 3 -14 14 -4
8 6 13 17 11 23 -11 29 45 69 102 74 69 5 116 -20 143 -78 12 -25 20 -55 17
-65 -4 -16 -5 -16 -6 4 0 12 -6 22 -12 22 -5 0 -7 -5 -4 -10 13 -20 -7 -48
-48 -70 -60 -32 -102 -23 -160 35 -32 31 -47 40 -51 30 -2 -7 4 -25 15 -39 11
-14 17 -26 12 -27 -4 0 1 -4 12 -8 11 -5 20 -12 20 -17 0 -5 4 -15 8 -21 5 -8
4 -13 -3 -13 -6 0 -15 10 -20 23 -5 12 -9 16 -9 8 -1 -11 -5 -10 -21 4 -11 10
-17 22 -14 26 3 5 1 9 -5 9 -17 0 -40 55 -34 78 3 13 1 22 -6 22 -40 0 19
-158 75 -201 68 -53 193 -41 274 28 17 13 30 21 30 16 0 -11 -74 -64 -113 -81
-15 -7 -48 -12 -72 -12 -47 0 -125 26 -125 41 0 5 -5 9 -11 9 -12 0 -47 41
-66 78 -18 34 -17 166 2 202 8 16 28 38 44 49 44 32 50 25 9 -9 -23 -19 -41
-45 -47 -67 -14 -51 -5 -54 15 -4 9 22 28 51 43 64 15 12 30 31 34 41 7 16 16
18 80 14 39 -3 88 -12 107 -21z m-780 -22 c0 -19 -4 -35 -10 -35 -5 0 -10 16
-10 35 0 19 5 35 10 35 6 0 10 -16 10 -35z m-73 3 c-3 -8 -6 -5 -6 6 -1 11 2
17 5 13 3 -3 4 -12 1 -19z m1018 -7 c3 -5 1 -12 -5 -16 -5 -3 -10 1 -10 9 0
18 6 21 15 7z m174 -5 c6 -8 11 -18 10 -22 -2 -5 3 -27 9 -49 10 -35 10 -42
-8 -60 -20 -19 -20 -19 -44 5 -38 39 -43 74 -13 104 14 14 22 27 19 30 -3 3
-1 6 5 6 6 0 16 -6 22 -14z m-2049 -10 c0 -2 -8 -10 -17 -17 -16 -13 -17 -12
-4 4 13 16 21 21 21 13z m972 -28 c-7 -7 -12 -8 -12 -2 0 6 3 14 7 17 3 4 9 5
12 2 2 -3 -1 -11 -7 -17z m903 -17 c3 -5 1 -12 -5 -16 -5 -3 -10 1 -10 9 0 18
6 21 15 7z m-481 -23 c-1 -13 -3 -36 -4 -53 l-2 -30 -7 30 c-7 33 -3 75 8 75
4 0 7 -10 5 -22z m711 12 c3 -5 1 -10 -4 -10 -6 0 -11 5 -11 10 0 6 2 10 4 10
3 0 8 -4 11 -10z m-1185 -20 c0 -5 -4 -10 -10 -10 -5 0 -10 5 -10 10 0 6 5 10
10 10 6 0 10 -4 10 -10z m905 -19 c3 -5 1 -12 -5 -16 -5 -3 -10 1 -10 9 0 18
6 21 15 7z m41 -18 c-10 -10 -19 5 -10 18 6 11 8 11 12 0 2 -7 1 -15 -2 -18z
m-946 -3 c0 -5 -4 -10 -10 -10 -5 0 -10 5 -10 10 0 6 5 10 10 10 6 0 10 -4 10
-10z m1946 -18 c-7 -12 -97 -44 -104 -38 -11 11 13 27 49 32 22 4 42 11 45 16
3 5 8 7 11 4 3 -2 2 -9 -1 -14z m-2029 -59 c-2 -16 -4 -5 -4 22 0 28 2 40 4
28 2 -13 2 -35 0 -50z m73 47 c0 -5 -5 -10 -11 -10 -5 0 -7 5 -4 10 3 6 8 10
11 10 2 0 4 -4 4 -10z m460 6 c0 -3 -4 -8 -10 -11 -5 -3 -10 -1 -10 4 0 6 5
11 10 11 6 0 10 -2 10 -4z m-1406 -21 c-4 -8 -7 -15 -9 -15 -2 0 -5 7 -9 15
-3 9 0 15 9 15 9 0 12 -6 9 -15z m1903 -7 c-3 -8 -6 -5 -6 6 -1 11 2 17 5 13
3 -3 4 -12 1 -19z m1022 -30 c-1 -29 -3 -45 -6 -35 -5 21 -23 22 -49 2 -10 -8
-23 -15 -28 -15 -16 0 15 28 44 40 21 9 30 19 30 36 0 13 2 24 5 24 3 0 4 -24
4 -52z m-784 32 c-3 -5 -10 -10 -16 -10 -5 0 -9 5 -9 10 0 6 7 10 16 10 8 0
12 -4 9 -10z m-725 -13 c0 -7 -6 -22 -14 -33 -14 -19 -14 -19 -13 1 2 17 16
43 25 45 1 0 2 -6 2 -13z m627 7 c-3 -3 -12 -4 -19 -1 -8 3 -5 6 6 6 11 1 17
-2 13 -5z m-1097 -14 c0 -5 -4 -10 -10 -10 -5 0 -10 5 -10 10 0 6 5 10 10 10
6 0 10 -4 10 -10z m846 -22 c5 -7 3 -8 -6 -3 -10 6 -12 4 -7 -8 6 -16 -15 -42
-26 -31 -3 4 -13 -1 -22 -10 -9 -9 -21 -14 -26 -11 -5 4 -9 1 -9 -4 0 -7 -21
-10 -52 -9 -46 1 -48 2 -14 5 21 3 45 11 53 19 8 8 22 14 32 14 10 0 28 11 41
25 27 29 27 29 36 13z m114 -9 c0 -5 -4 -9 -10 -9 -5 0 -10 7 -10 16 0 8 5 12
10 9 6 -3 10 -10 10 -16z m152 14 c-6 -2 -10 -9 -6 -14 3 -5 0 -9 -5 -9 -6 0
-11 7 -11 15 0 8 8 15 18 14 10 0 12 -3 4 -6z m-1022 -13 c0 -5 -2 -10 -4 -10
-3 0 -8 5 -11 10 -3 6 -1 10 4 10 6 0 11 -4 11 -10z m396 -17 c-10 -10 -19 5
-10 18 6 11 8 11 12 0 2 -7 1 -15 -2 -18z m-499 -5 c-3 -8 -6 -5 -6 6 -1 11 2
17 5 13 3 -3 4 -12 1 -19z m-309 -46 c-43 -77 -140 -201 -176 -226 -34 -23
-122 -60 -122 -51 0 2 29 18 65 35 54 26 76 44 124 105 32 40 73 99 91 130 18
31 34 54 37 52 2 -3 -6 -23 -19 -45z m826 23 c54 -23 45 -36 -24 -34 -33 1
-60 4 -60 6 0 4 41 41 46 43 1 0 18 -7 38 -15z m446 5 c0 -5 -4 -10 -10 -10
-5 0 -10 5 -10 10 0 6 5 10 10 10 6 0 10 -4 10 -10z m240 -10 c0 -5 -5 -10
-11 -10 -5 0 -7 5 -4 10 3 6 8 10 11 10 2 0 4 -4 4 -10z m-1200 -24 c0 -8 -4
-18 -10 -21 -5 -3 -10 3 -10 14 0 12 5 21 10 21 6 0 10 -6 10 -14z m130 -36
c12 -37 15 -39 30 -25 25 23 50 9 50 -28 l0 -30 25 23 c17 16 29 20 35 14 10
-10 -8 -39 -59 -100 -6 -7 -7 -14 -4 -18 3 -3 2 -11 -4 -18 -6 -9 -3 -24 8
-46 13 -26 19 -30 26 -19 4 7 20 22 35 31 29 19 43 9 33 -24 -8 -26 -67 -68
-73 -52 -6 20 -32 13 -32 -8 0 -21 -24 -27 -36 -9 -3 6 -8 31 -9 55 -3 42 -24
104 -35 104 -3 0 -22 -4 -43 -9 -52 -12 -57 4 -13 45 31 28 35 37 26 53 -13
25 -13 52 0 86 13 33 23 27 40 -25z m266 24 c-18 -17 -26 -18 -26 -1 0 7 9 13
20 14 18 2 18 0 6 -13z m564 -5 c0 -5 -4 -9 -10 -9 -5 0 -10 7 -10 16 0 8 5
12 10 9 6 -3 10 -10 10 -16z m-621 -10 c-24 -15 -45 -11 -24 5 11 8 24 12 28
9 5 -3 3 -9 -4 -14z m565 -48 c0 -29 -8 -49 -24 -66 -22 -23 -22 -26 -7 -43
17 -19 24 -72 10 -72 -5 0 -18 -3 -30 -6 -16 -5 -23 -2 -23 8 0 18 -34 51 -43
41 -4 -3 2 -12 13 -20 11 -8 20 -21 20 -29 0 -12 -7 -14 -32 -8 -27 5 -31 4
-21 -7 9 -11 8 -20 -2 -39 -8 -14 -14 -33 -15 -42 0 -10 -3 -18 -7 -19 -5 0
-18 -2 -31 -3 -29 -3 -52 28 -52 71 0 43 16 50 42 18 28 -36 33 -25 8 18 -21
36 -24 86 -5 90 6 1 16 -13 24 -30 8 -18 21 -33 28 -33 16 0 17 -5 -7 58 -29
77 -26 116 7 75 13 -17 14 -17 29 5 9 12 23 22 30 22 8 0 14 -10 15 -22 0 -17
8 -8 26 30 29 62 48 63 47 3z m-904 3 c0 -8 -7 -14 -15 -14 -15 0 -21 21 -9
33 10 9 24 -2 24 -19z m438 14 c18 -18 42 -18 42 0 1 13 5 12 21 -7 18 -22 24
-24 50 -14 31 12 36 5 19 -26 -6 -13 -5 -27 3 -45 10 -21 19 -26 50 -26 27 0
37 -4 34 -12 -2 -9 -19 -12 -47 -10 -26 2 -46 -1 -50 -9 -5 -6 5 -33 21 -61
31 -52 31 -75 -1 -58 -23 13 -33 13 -25 1 13 -23 -14 -18 -29 4 -15 23 -45 37
-31 15 3 -5 0 -10 -8 -10 -10 0 -14 8 -11 23 2 12 1 15 -2 7 -8 -17 -44 -54
-44 -44 0 3 -7 1 -15 -6 -21 -17 -32 14 -14 38 12 14 10 14 -8 -2 -39 -33 -44
-12 -8 38 29 42 32 50 20 63 -8 7 -28 15 -45 16 -20 1 -30 7 -30 18 0 13 8 15
45 9 33 -5 45 -4 45 6 0 17 -28 44 -57 55 -27 10 -31 29 -6 29 9 0 30 -15 45
-32 l29 -33 -5 27 c-3 14 -9 33 -12 42 -7 19 7 21 24 4z m747 -8 c3 -5 1 -10
-4 -10 -6 0 -11 5 -11 10 0 6 2 10 4 10 3 0 8 -4 11 -10z m841 -40 c21 0 17
-27 -6 -33 -18 -5 -20 -1 -19 41 1 30 4 37 6 20 2 -16 11 -28 19 -28z m-1376
22 c0 -4 -15 -13 -32 -19 l-33 -12 24 19 c24 21 41 26 41 12z m292 -14 c-7 -7
-12 -8 -12 -2 0 14 12 26 19 19 2 -3 -1 -11 -7 -17z m-1867 -8 c-3 -5 -13 -10
-21 -10 -8 0 -14 5 -14 10 0 6 9 10 21 10 11 0 17 -4 14 -10z m2708 3 c-7 -2
-19 -2 -25 0 -7 3 -2 5 12 5 14 0 19 -2 13 -5z m-1790 -33 c-3 -11 -12 -20
-19 -20 -16 0 -16 2 -8 24 9 24 33 20 27 -4z m621 0 c-10 -4 -21 -6 -24 -3 -8
7 24 22 34 16 5 -4 1 -10 -10 -13z m326 -10 c0 -5 -4 -10 -10 -10 -5 0 -10 5
-10 10 0 6 5 10 10 10 6 0 10 -4 10 -10z m255 0 c3 -5 1 -10 -4 -10 -6 0 -11
5 -11 10 0 6 2 10 4 10 3 0 8 -4 11 -10z m-895 -6 c0 -15 -62 -94 -71 -89 -16
10 -10 50 11 73 19 20 60 31 60 16z m625 -110 c-3 -35 -11 -64 -16 -64 -6 0
-7 14 -4 33 3 17 8 50 10 72 4 49 5 53 12 37 3 -8 2 -42 -2 -78z m-941 48 c2
-4 0 -14 -5 -22 -8 -13 -10 -13 -18 0 -10 15 -6 30 9 30 5 0 11 -4 14 -8z
m1186 -22 c0 -5 -5 -10 -11 -10 -5 0 -7 5 -4 10 3 6 8 10 11 10 2 0 4 -4 4
-10z m-2060 -31 c0 -11 -4 -17 -10 -14 -5 3 -10 13 -10 21 0 8 5 14 10 14 6 0
10 -9 10 -21z m865 -26 c-4 -10 -10 -28 -12 -40 -3 -13 -9 -23 -14 -23 -12 0
-12 27 0 34 5 3 7 15 4 26 -4 14 0 20 12 20 12 0 15 -5 10 -17z m2105 7 c0 -5
-7 -10 -16 -10 -8 0 -12 5 -9 10 3 6 10 10 16 10 5 0 9 -4 9 -10z m-1174 -87
c-11 -11 -19 6 -11 24 8 17 8 17 12 0 3 -10 2 -21 -1 -24z m-928 -5 c-3 -7
-11 -13 -18 -13 -7 0 -15 6 -17 13 -3 7 4 12 17 12 13 0 20 -5 18 -12z m90 -7
c2 -6 -8 -11 -27 -11 -20 0 -31 5 -31 14 0 18 52 15 58 -3z m80 -7 c1 -5 -2
-9 -8 -8 -5 1 -21 2 -35 3 -14 0 -25 6 -25 11 0 13 64 7 68 -6z m53 0 c12 -14
11 -16 -5 -13 -11 2 -21 10 -24 17 -5 17 13 15 29 -4z m129 -5 c0 -5 -16 -9
-35 -9 -32 0 -43 8 -30 22 8 8 65 -3 65 -13z m-1152 -29 c-2 -7 -10 1 -17 16
-12 27 -11 28 4 12 10 -9 16 -21 13 -28z m1072 30 c0 -5 -4 -10 -10 -10 -5 0
-10 5 -10 10 0 6 5 10 10 10 6 0 10 -4 10 -10z m121 -5 c-1 -15 -24 -12 -29 3
-3 9 2 13 12 10 10 -1 17 -7 17 -13z m49 0 c0 -8 -7 -15 -15 -15 -8 0 -15 7
-15 15 0 8 7 15 15 15 8 0 15 -7 15 -15z m35 -3 c0 -18 -20 -15 -23 4 -3 10 1
15 10 12 7 -3 13 -10 13 -16z m43 -5 c2 -10 -3 -17 -12 -17 -10 0 -16 9 -16
21 0 24 23 21 28 -4z m42 -3 c0 -16 -16 -19 -25 -4 -8 13 4 32 16 25 5 -4 9
-13 9 -21z m30 1 c0 -8 -4 -15 -10 -15 -5 0 -10 7 -10 15 0 8 5 15 10 15 6 0
10 -7 10 -15z m78 -4 c2 -6 -8 -11 -27 -11 -20 0 -31 5 -31 14 0 18 52 15 58
-3z m77 -2 c4 -6 5 -12 3 -15 -8 -7 -68 8 -68 17 0 13 58 11 65 -2z m35 -4 c0
-8 -4 -15 -10 -15 -5 0 -10 7 -10 15 0 8 5 15 10 15 6 0 10 -7 10 -15z m150
-10 c0 -14 -4 -25 -10 -25 -5 0 -10 11 -10 25 0 14 5 25 10 25 6 0 10 -11 10
-25z m-54 5 c8 0 14 -4 14 -9 0 -15 -83 -6 -88 9 -4 10 3 11 28 7 18 -4 39 -7
46 -7z m201 -14 l28 -24 -24 -26 c-14 -14 -31 -26 -39 -26 -33 0 -67 71 -45
93 14 15 53 6 80 -17z m-413 -28 c-3 -4 -12 -8 -20 -8 -8 0 -13 4 -10 8 3 5
12 9 20 9 8 0 13 -4 10 -9z m-844 -13 c7 -8 10 -26 8 -40 -3 -14 -1 -25 6 -25
6 -1 -2 -8 -18 -16 -23 -13 -34 -14 -55 -4 -21 9 -23 13 -10 20 8 5 14 21 13
37 -2 41 31 58 56 28z m242 -12 c25 -22 23 -68 -4 -93 -28 -26 -55 -22 -81 11
-25 34 -15 65 26 83 41 18 38 19 59 -1z m273 -13 c40 -44 10 -120 -46 -120
-17 0 -34 8 -43 22 -36 51 -7 103 65 117 3 0 14 -8 24 -19z m122 -2 c34 -39
35 -47 6 -83 -26 -33 -53 -50 -37 -23 4 7 9 22 10 35 3 29 -22 31 -29 3 -7
-29 -27 -25 -27 6 0 23 36 82 51 83 3 1 15 -9 26 -21z m158 -22 c22 -28 24
-38 16 -55 -26 -47 -83 -65 -107 -33 -27 35 -8 108 30 115 11 2 24 5 28 6 4 0
19 -14 33 -33z m234 -17 c17 -16 21 -28 16 -47 -13 -52 -72 -80 -95 -44 -11
16 -11 16 -6 0 3 -12 0 -18 -9 -18 -11 0 -15 11 -15 40 0 30 6 45 27 65 34 31
52 31 82 4z m331 1 c0 -5 -5 -10 -11 -10 -5 0 -7 5 -4 10 3 6 8 10 11 10 2 0
4 -4 4 -10z m915 -30 c3 -5 1 -10 -4 -10 -6 0 -11 5 -11 10 0 6 2 10 4 10 3 0
8 -4 11 -10z m-915 -10 c0 -5 -4 -10 -10 -10 -5 0 -10 5 -10 10 0 6 5 10 10
10 6 0 10 -4 10 -10z m-1005 -30 c-4 -12 -9 -19 -12 -17 -3 3 -2 15 2 27 4 12
9 19 12 17 3 -3 2 -15 -2 -27z m-550 -10 c-3 -5 -11 -10 -16 -10 -6 0 -7 5 -4
10 3 6 11 10 16 10 6 0 7 -4 4 -10z m-21 -55 c-4 -8 -11 -12 -16 -9 -6 4 -5
10 3 15 19 12 19 11 13 -6z m649 -5 c15 0 27 -4 27 -8 0 -12 -143 -2 -155 10
-7 7 7 9 45 4 30 -3 67 -6 83 -6z m927 0 c0 -5 -2 -10 -4 -10 -3 0 -8 5 -11
10 -3 6 -1 10 4 10 6 0 11 -4 11 -10z m-835 -10 c4 -6 11 -7 17 -4 7 4 8 2 4
-5 -5 -7 -13 -8 -23 -2 -9 4 -24 6 -34 4 -11 -3 -19 0 -19 6 0 14 47 15 55 1z
m395 -14 c60 -5 133 -14 200 -26 30 -5 76 -12 101 -15 30 -4 57 -15 75 -32 22
-19 24 -23 9 -18 -22 8 -80 20 -164 34 -46 7 -54 6 -58 -9 -3 -12 -12 -15 -34
-12 -16 2 -29 9 -29 14 0 6 6 8 13 5 8 -3 20 -2 27 3 18 11 -8 17 -112 25 -77
6 -88 5 -88 -9 0 -9 -5 -16 -11 -16 -6 0 -8 9 -4 20 6 19 2 20 -64 21 -39 1
-75 3 -81 4 -5 1 -39 3 -75 4 -36 0 -65 5 -65 11 0 9 220 6 360 -4z m-1120 -6
c0 -5 -7 -10 -16 -10 -8 0 -12 5 -9 10 3 6 10 10 16 10 5 0 9 -4 9 -10z m50 0
c12 -8 11 -10 -7 -10 -13 0 -23 5 -23 10 0 13 11 13 30 0z m55 0 c3 -5 -1 -10
-9 -10 -9 0 -16 5 -16 10 0 6 4 10 9 10 6 0 13 -4 16 -10z m75 0 c0 -5 -4 -10
-10 -10 -5 0 -10 5 -10 10 0 6 5 10 10 10 6 0 10 -4 10 -10z m40 6 c0 -3 -4
-8 -10 -11 -5 -3 -10 -1 -10 4 0 6 5 11 10 11 6 0 10 -2 10 -4z m40 -6 c0 -5
-4 -10 -10 -10 -5 0 -10 5 -10 10 0 6 5 10 10 10 6 0 10 -4 10 -10z m55 0 c-3
-5 -10 -10 -16 -10 -5 0 -9 5 -9 10 0 6 7 10 16 10 8 0 12 -4 9 -10z m52 4
c-3 -3 -12 -4 -19 -1 -8 3 -5 6 6 6 11 1 17 -2 13 -5z m53 -4 c0 -5 -7 -10
-15 -10 -8 0 -15 5 -15 10 0 6 7 10 15 10 8 0 15 -4 15 -10z m60 0 c0 -5 -7
-10 -15 -10 -8 0 -15 5 -15 10 0 6 7 10 15 10 8 0 15 -4 15 -10z m40 -11 c0
-5 -4 -9 -10 -9 -5 0 -10 7 -10 16 0 8 5 12 10 9 6 -3 10 -10 10 -16z m55 1
c3 -5 -1 -10 -9 -10 -9 0 -16 5 -16 10 0 6 4 10 9 10 6 0 13 -4 16 -10z m53
-1 c-2 -6 -8 -10 -13 -10 -5 0 -11 4 -13 10 -2 6 4 11 13 11 9 0 15 -5 13 -11z
m52 -4 c0 -8 -4 -15 -10 -15 -5 0 -10 7 -10 15 0 8 5 15 10 15 6 0 10 -7 10
-15z m880 5 c0 -5 -2 -10 -4 -10 -3 0 -8 5 -11 10 -3 6 -1 10 4 10 6 0 11 -4
11 -10z m-830 -10 c0 -5 -4 -10 -10 -10 -5 0 -10 5 -10 10 0 6 5 10 10 10 6 0
10 -4 10 -10z m50 0 c0 -5 -4 -10 -10 -10 -5 0 -10 5 -10 10 0 6 5 10 10 10 6
0 10 -4 10 -10z m41 -13 c-13 -13 -26 -3 -16 12 3 6 11 8 17 5 6 -4 6 -10 -1
-17z m49 3 c0 -5 -4 -10 -9 -10 -6 0 -13 5 -16 10 -3 6 1 10 9 10 9 0 16 -4
16 -10z m50 0 c0 -5 -7 -10 -15 -10 -8 0 -15 5 -15 10 0 6 7 10 15 10 8 0 15
-4 15 -10z m45 0 c3 -5 1 -10 -4 -10 -6 0 -11 5 -11 10 0 6 2 10 4 10 3 0 8
-4 11 -10z m45 -10 c0 -5 -4 -10 -10 -10 -5 0 -10 5 -10 10 0 6 5 10 10 10 6
0 10 -4 10 -10z m100 -5 c0 -8 -4 -15 -9 -15 -5 0 -11 7 -15 15 -3 9 0 15 9
15 8 0 15 -7 15 -15z m58 -13 c2 -7 -3 -12 -12 -12 -9 0 -16 7 -16 16 0 17 22
14 28 -4z m28 -9 c-10 -10 -19 5 -10 18 6 11 8 11 12 0 2 -7 1 -15 -2 -18z
m364 7 c0 -5 -4 -10 -10 -10 -5 0 -10 5 -10 10 0 6 5 10 10 10 6 0 10 -4 10
-10z m-240 -21 c0 -5 -4 -9 -10 -9 -5 0 -10 7 -10 16 0 8 5 12 10 9 6 -3 10
-10 10 -16z m50 -5 c0 -9 -5 -14 -12 -12 -18 6 -21 28 -4 28 9 0 16 -7 16 -16z
m50 -9 c0 -13 -4 -14 -20 -5 -11 6 -20 13 -20 15 0 3 9 5 20 5 11 0 20 -7 20
-15z m-1620 -7 c0 -16 -39 -67 -40 -52 0 16 24 64 33 64 4 0 7 -6 7 -12z
m1674 6 c23 -9 20 -23 -4 -21 -11 1 -20 7 -20 14 0 15 2 15 24 7z m81 -3 c3
-5 1 -12 -5 -16 -5 -3 -10 1 -10 9 0 18 6 21 15 7z m-25 -22 c0 -5 -4 -9 -10
-9 -5 0 -10 7 -10 16 0 8 5 12 10 9 6 -3 10 -10 10 -16z m-1790 -26 c0 -7 -7
-13 -15 -13 -16 0 -19 9 -9 35 5 13 8 14 15 3 5 -7 9 -19 9 -25z m1590 -28 c0
-8 -4 -15 -9 -15 -13 0 -22 16 -14 24 11 11 23 6 23 -9z m35 6 c3 -5 1 -12 -5
-16 -5 -3 -10 1 -10 9 0 18 6 21 15 7z m-1665 -11 c0 -5 -4 -10 -10 -10 -5 0
-10 5 -10 10 0 6 5 10 10 10 6 0 10 -4 10 -10z m1565 0 c3 -5 -1 -10 -9 -10
-9 0 -16 5 -16 10 0 6 4 10 9 10 6 0 13 -4 16 -10z m136 -3 c-1 -12 -15 -9
-19 4 -3 6 1 10 8 8 6 -3 11 -8 11 -12z m-1631 -40 l-1 -32 -15 28 c-8 15 -12
32 -9 37 11 18 25 -1 25 -33z m1680 17 c0 -8 -4 -12 -10 -9 -5 3 -10 10 -10
16 0 5 5 9 10 9 6 0 10 -7 10 -16z m-1730 -10 c0 -22 -23 -44 -41 -39 -12 4
-19 2 -19 -6 0 -7 -3 -9 -6 -6 -4 4 -2 13 4 20 7 8 8 18 4 22 -4 5 -2 6 3 2 6
-3 17 -2 25 4 17 10 30 12 30 3z m-80 -20 c-7 -8 -24 -14 -39 -14 -23 1 -24 2
-10 13 9 7 27 13 39 14 18 2 19 -1 10 -13z m100 -3 c0 -6 -4 -13 -10 -16 -5
-3 -10 1 -10 9 0 9 5 16 10 16 6 0 10 -4 10 -9z m465 -11 c3 -5 -1 -10 -10
-10 -9 0 -13 5 -10 10 3 6 8 10 10 10 2 0 7 -4 10 -10z m5 -24 c0 -3 -4 -8
-10 -11 -5 -3 -10 -1 -10 4 0 6 5 11 10 11 6 0 10 -2 10 -4z"/>
<path d="M2824 3409 c-49 -14 -55 -27 -46 -109 8 -82 0 -76 108 -87 51 -5 114
15 114 36 0 5 10 11 22 14 21 6 21 7 4 26 -26 28 -80 44 -125 36 -34 -6 -39
-4 -37 12 4 23 90 56 130 50 l30 -4 -23 18 c-26 21 -119 25 -177 8z"/>
<path d="M2505 2820 c-16 -7 -17 -9 -3 -9 9 -1 20 4 23 9 7 11 7 11 -20 0z"/>
<path d="M2568 2813 c6 -2 18 -2 25 0 6 3 1 5 -13 5 -14 0 -19 -2 -12 -5z"/>
<path d="M2380 2680 c0 -5 3 -9 8 -9 28 5 34 -3 12 -17 l-25 -15 25 5 c22 5
21 4 -5 -9 -32 -15 -18 -19 34 -9 18 4 31 13 31 21 0 10 -6 13 -16 9 -8 -3
-13 -2 -10 3 3 4 -6 13 -20 20 -31 14 -34 14 -34 1z"/>
<path d="M2360 2550 c0 -5 5 -10 11 -10 5 0 7 5 4 10 -3 6 -8 10 -11 10 -2 0
-4 -4 -4 -10z"/>
<path d="M2415 2500 c3 -5 8 -10 11 -10 2 0 4 5 4 10 0 6 -5 10 -11 10 -5 0
-7 -4 -4 -10z"/>
<path d="M2470 2490 c0 -5 5 -10 11 -10 5 0 7 5 4 10 -3 6 -8 10 -11 10 -2 0
-4 -4 -4 -10z"/>
<path d="M2490 2445 c0 -7 26 -33 60 -60 18 -14 15 -8 -10 22 -32 38 -50 51
-50 38z"/>
<path d="M2453 2383 c9 -9 19 -14 23 -11 10 10 -6 28 -24 28 -15 0 -15 -1 1
-17z"/>
<path d="M2090 2034 c0 -13 58 -69 65 -63 2 3 -11 21 -30 39 -19 19 -35 29
-35 24z"/>
<path d="M2021 1474 c0 -11 3 -14 6 -6 3 7 2 16 -1 19 -3 4 -6 -2 -5 -13z"/>
<path d="M2675 1358 c-34 -18 -75 -61 -75 -77 0 -10 7 -6 17 11 9 15 37 38 62
52 26 14 39 25 31 25 -8 0 -24 -5 -35 -11z"/>
<path d="M2745 1360 c11 -5 27 -9 35 -9 9 0 8 4 -5 9 -11 5 -27 9 -35 9 -9 0
-8 -4 5 -9z"/>
<path d="M2724 1308 c-3 -5 1 -20 10 -33 15 -23 17 -24 35 -8 11 9 17 22 14
28 -5 16 -51 26 -59 13z"/>
<path d="M2676 1301 c-3 -5 0 -11 8 -14 8 -3 17 1 20 9 6 15 -19 20 -28 5z"/>
<path d="M2796 1271 c-4 -5 -2 -12 3 -15 5 -3 7 -15 4 -26 -4 -14 1 -22 18
-29 35 -13 43 2 22 39 -20 36 -37 47 -47 31z"/>
<path d="M2650 1233 c0 -35 14 -58 29 -49 7 5 11 -1 11 -14 0 -35 61 -48 74
-15 6 16 -26 55 -45 55 -10 0 -10 3 -1 12 9 9 5 15 -19 25 -44 18 -49 17 -49
-14z"/>
<path d="M2750 1210 c0 -5 5 -10 11 -10 5 0 7 5 4 10 -3 6 -8 10 -11 10 -2 0
-4 -4 -4 -10z"/>
<path d="M2780 1202 c0 -13 27 -35 39 -30 5 1 -2 11 -15 21 -13 10 -24 14 -24
9z"/>
<path d="M2836 1105 c4 -8 8 -15 10 -15 2 0 4 7 4 15 0 8 -4 15 -10 15 -5 0
-7 -7 -4 -15z"/>
<path d="M3120 1360 c-13 -8 -13 -10 2 -10 9 0 20 5 23 10 8 13 -5 13 -25 0z"/>
<path d="M3178 1363 c6 -2 18 -2 25 0 6 3 1 5 -13 5 -14 0 -19 -2 -12 -5z"/>
<path d="M3178 1249 c-10 -6 -14 -17 -11 -29 7 -25 21 -22 40 7 12 17 12 21 0
26 -7 3 -20 1 -29 -4z"/>
<path d="M3236 1234 c-8 -22 -9 -21 16 -27 l22 -6 -24 -21 c-24 -21 -25 -22
-5 -36 26 -19 38 -13 49 25 8 27 5 35 -14 56 -27 29 -36 31 -44 9z"/>
<path d="M3119 1223 c-1 -5 -1 -23 -1 -42 1 -45 17 -60 33 -30 9 17 9 24 0 27
-6 2 -8 14 -5 28 5 18 2 24 -10 24 -9 0 -17 -3 -17 -7z"/>
<path d="M3183 1144 c-1 -37 9 -49 33 -40 13 5 13 9 -1 35 -22 43 -31 44 -32
5z"/>
<path d="M3590 1235 c0 -8 5 -15 10 -15 6 0 10 7 10 15 0 8 -4 15 -10 15 -5 0
-10 -7 -10 -15z"/>
<path d="M2630 875 c0 -8 7 -15 16 -15 14 0 14 3 4 15 -7 8 -14 15 -16 15 -2
0 -4 -7 -4 -15z"/>
<path d="M2467 498 c-20 -11 -22 -34 -4 -41 17 -6 47 11 47 27 0 19 -22 26
-43 14z"/>
<path d="M2727 483 c-13 -12 -7 -43 8 -43 8 0 15 5 15 11 0 8 4 8 14 0 11 -9
15 -8 20 5 3 9 4 20 0 25 -6 10 -47 12 -57 2z"/>
<path d="M3014 476 c-6 -16 12 -56 26 -56 15 0 22 20 16 46 -7 26 -33 33 -42
10z"/>
<path d="M3263 443 c-7 -2 -13 -11 -13 -19 0 -8 6 -14 13 -14 21 0 40 17 33
29 -8 12 -13 12 -33 4z"/>
<path d="M2130 2781 c0 -5 5 -13 10 -16 6 -3 10 -2 10 4 0 5 -4 13 -10 16 -5
3 -10 2 -10 -4z"/>
<path d="M5227 2564 c-4 -4 -7 -18 -7 -32 0 -18 4 -23 16 -18 9 3 22 6 30 6 8
0 14 9 14 20 0 11 -4 20 -9 20 -5 0 -16 2 -23 5 -8 3 -17 2 -21 -1z"/>
<path d="M5223 2483 c-8 -3 -13 -25 -13 -59 0 -64 -19 -146 -37 -157 -7 -4
-13 -18 -13 -30 0 -12 -4 -17 -8 -12 -4 6 -16 11 -27 13 -11 2 -24 11 -30 20
-24 39 -98 111 -113 110 -9 -1 -28 2 -41 6 -36 12 -17 -11 29 -34 48 -25 80
-65 80 -101 0 -38 21 -84 31 -68 4 7 7 0 6 -17 0 -16 0 -46 1 -68 2 -31 5 -36
16 -27 11 9 15 8 20 -5 4 -10 2 -22 -4 -28 -5 -5 -10 -20 -10 -32 0 -12 -11
-29 -25 -38 -15 -10 -25 -26 -24 -39 0 -22 0 -22 17 3 9 14 31 40 49 57 34 33
43 67 21 76 -10 4 -10 6 0 6 6 1 12 12 12 26 0 14 4 25 9 25 5 0 9 -6 8 -12 0
-7 1 -24 1 -37 2 -24 2 -24 22 -6 13 11 18 25 14 37 -7 24 5 45 17 27 6 -10 9
-9 15 6 3 11 13 35 21 54 8 18 13 46 11 63 -3 16 -1 31 4 34 13 8 9 156 -5
184 -13 25 -31 33 -54 23z m5 -282 c3 -9 0 -12 -10 -9 -8 3 -25 0 -39 -8 -29
-16 -39 -17 -39 -4 0 6 6 10 14 10 7 0 19 7 26 15 15 19 41 16 48 -4z m-104
-42 c-3 -5 -10 -7 -15 -3 -5 3 -7 10 -3 15 3 5 10 7 15 3 5 -3 7 -10 3 -15z"/>
<path d="M4920 2412 c0 -15 24 -32 44 -32 18 0 19 1 1 20 -18 20 -45 27 -45
12z"/>
<path d="M3071 2293 c-7 -8 -11 -16 -8 -19 6 -7 37 7 37 16 0 16 -15 18 -29 3z"/>
<path d="M5090 2298 c0 -18 18 -34 28 -24 3 4 -2 14 -11 23 -16 16 -17 16 -17
1z"/>
<path d="M4905 2287 c-4 -10 -5 -21 -1 -24 10 -10 18 4 13 24 -4 17 -4 17 -12
0z"/>
<path d="M2980 2270 c0 -8 7 -37 15 -65 l15 -50 -5 48 c-5 47 -24 100 -25 67z"/>
<path d="M3028 2273 c-20 -5 -23 -18 -8 -28 6 -3 10 -1 10 5 0 6 5 8 10 5 6
-3 10 1 10 9 0 9 -1 15 -2 15 -2 -1 -11 -3 -20 -6z"/>
<path d="M3130 2231 c0 -22 -19 -38 -29 -25 -3 5 -17 15 -29 22 -22 13 -23 12
-17 -10 4 -13 12 -24 16 -26 5 -2 9 -9 9 -16 0 -7 5 -17 12 -24 15 -15 39 4
31 25 -5 13 -3 13 15 2 19 -12 24 -11 38 3 16 16 16 19 -7 42 -29 31 -39 32
-39 7z"/>
<path d="M3415 2220 c3 -5 8 -10 11 -10 2 0 4 5 4 10 0 6 -5 10 -11 10 -5 0
-7 -4 -4 -10z"/>
<path d="M3415 2190 c-3 -5 -1 -10 4 -10 6 0 11 5 11 10 0 6 -2 10 -4 10 -3 0
-8 -4 -11 -10z"/>
<path d="M3407 2140 c-3 -11 -2 -22 3 -25 4 -3 10 6 12 20 6 30 -7 34 -15 5z"/>
<path d="M4876 2085 c-21 -21 -16 -28 12 -18 14 6 19 12 13 21 -6 11 -11 10
-25 -3z"/>
<path d="M2495 2000 c-3 -5 1 -10 9 -10 9 0 16 5 16 10 0 6 -4 10 -9 10 -6 0
-13 -4 -16 -10z"/>
<path d="M2750 1940 c0 -5 5 -10 10 -10 6 0 10 5 10 10 0 6 -4 10 -10 10 -5 0
-10 -4 -10 -10z"/>
<path d="M3355 1940 c-3 -5 -2 -10 4 -10 5 0 13 5 16 10 3 6 2 10 -4 10 -5 0
-13 -4 -16 -10z"/>
<path d="M4750 1884 c0 -8 5 -12 10 -9 6 3 10 10 10 16 0 5 -4 9 -10 9 -5 0
-10 -7 -10 -16z"/>
<path d="M2600 1864 c0 -9 -8 -23 -17 -30 -17 -12 -17 -13 -1 -14 23 0 25 -6
38 -84 6 -38 20 -87 32 -110 12 -22 21 -44 20 -48 -1 -5 7 -8 19 -8 20 0 20 1
-4 30 -15 18 -30 53 -37 87 -6 32 -12 66 -14 75 -4 17 20 34 26 19 2 -5 26
-11 53 -14 l50 -6 -43 12 c-50 14 -64 31 -51 64 12 34 11 41 -5 21 -12 -16
-14 -16 -34 2 -26 24 -32 25 -32 4z m50 -51 c0 -24 -25 -9 -28 17 -3 21 -2 22
12 11 9 -7 16 -20 16 -28z"/>
<path d="M3183 1863 c9 -2 23 -2 30 0 6 3 -1 5 -18 5 -16 0 -22 -2 -12 -5z"/>
<path d="M3030 1850 c0 -5 5 -10 10 -10 6 0 10 5 10 10 0 6 -4 10 -10 10 -5 0
-10 -4 -10 -10z"/>
<path d="M3136 1828 c-7 -23 -14 -28 -42 -28 -19 0 -37 6 -42 15 -7 13 -10 12
-20 -10 -10 -23 -9 -25 11 -26 12 -1 26 -1 30 0 5 1 34 4 65 7 69 8 72 10 39
25 -14 6 -28 19 -30 28 -3 11 -6 7 -11 -11z"/>
<path d="M2837 1813 c-4 -3 -7 -14 -7 -24 0 -9 -6 -20 -12 -22 -19 -8 54 -8
91 -1 42 9 39 28 -6 32 -20 1 -42 7 -48 12 -7 5 -15 7 -18 3z"/>
<path d="M3551 1776 c-8 -10 -9 -16 -1 -21 13 -8 30 3 30 21 0 18 -14 18 -29
0z"/>
<path d="M3174 1722 c5 -51 24 -102 38 -102 5 0 8 -15 6 -32 -2 -27 -8 -34
-33 -39 -22 -5 -24 -7 -8 -8 46 -2 53 8 53 73 0 33 -5 79 -12 101 -6 22 -11
43 -10 48 1 4 -7 7 -18 7 -18 0 -20 -5 -16 -48z"/>
<path d="M2550 1705 c7 -9 15 -13 17 -11 7 7 -7 26 -19 26 -6 0 -6 -6 2 -15z"/>
<path d="M2798 1708 c7 -7 12 -20 12 -30 0 -18 33 -42 44 -31 3 3 15 -2 26
-12 11 -10 23 -16 26 -13 10 11 -87 98 -109 98 -7 0 -7 -4 1 -12z"/>
<path d="M2888 1713 c7 -3 16 -2 19 1 4 3 -2 6 -13 5 -11 0 -14 -3 -6 -6z"/>
<path d="M2715 1640 c3 -5 12 -7 20 -3 21 7 19 13 -6 13 -11 0 -18 -4 -14 -10z"/>
<path d="M2576 1622 c-2 -4 2 -16 10 -27 13 -18 14 -18 14 8 0 25 -13 36 -24
19z"/>
<path d="M2750 1600 c0 -5 7 -10 16 -10 13 0 14 -3 5 -14 -9 -11 1 -15 56 -24
38 -6 85 -15 106 -21 21 -5 37 -5 37 0 0 5 -12 9 -26 9 -21 0 -25 4 -21 20 3
10 -1 24 -9 31 -14 12 -19 3 -15 -28 1 -6 -7 -10 -16 -8 -10 2 -30 6 -44 9
-15 3 -29 14 -32 26 -3 14 -13 20 -31 20 -14 0 -26 -4 -26 -10z"/>
<path d="M3162 1590 c0 -14 2 -19 5 -12 2 6 2 18 0 25 -3 6 -5 1 -5 -13z"/>
<path d="M3260 1550 c0 -5 5 -10 10 -10 6 0 10 5 10 10 0 6 -4 10 -10 10 -5 0
-10 -4 -10 -10z"/>
<path d="M3025 1530 l-50 -7 60 0 c33 0 74 3 90 7 28 7 28 8 -10 7 -22 0 -62
-3 -90 -7z"/>
<path d="M3091 1508 c-53 -9 -54 -10 -37 -33 13 -18 14 -18 36 3 27 25 41 27
58 10 6 -6 13 -10 15 -7 2 2 -4 11 -12 19 -13 12 -27 14 -60 8z"/>
<path d="M3150 1510 c0 -5 7 -10 15 -10 8 0 15 5 15 10 0 6 -7 10 -15 10 -8 0
-15 -4 -15 -10z"/>
<path d="M3263 1483 c-26 -5 -31 -28 -7 -37 22 -8 21 -9 26 19 3 14 5 24 4 24
0 -1 -11 -4 -23 -6z"/>
<path d="M3320 1464 c0 -9 5 -14 12 -12 18 6 21 28 4 28 -9 0 -16 -7 -16 -16z"/>
<path d="M3340 59 c0 -8 -3 -24 -6 -36 -6 -20 -3 -23 26 -23 24 0 31 4 27 15
-4 8 -2 17 2 20 5 2 11 -3 14 -14 4 -15 16 -18 76 -19 39 -1 71 1 71 4 0 12
-112 55 -159 61 -40 4 -51 3 -51 -8z"/>
<path d="M3255 43 c-22 -9 -49 -23 -60 -30 -18 -12 -12 -13 50 -11 68 3 70 4
73 31 4 32 -5 33 -63 10z"/>
</g>
</svg>
